<?xml version="1.0" standalone="no"?>
<!DOCTYPE svg PUBLIC "-//W3C//DTD SVG 20010904//EN"
 "http://www.w3.org/TR/2001/REC-SVG-20010904/DTD/svg10.dtd">
<svg version="1.0" xmlns="http://www.w3.org/2000/svg"
 width="1280.000000pt" height="698.000000pt" viewBox="0 0 1280.000000 698.000000"
 preserveAspectRatio="xMidYMid meet">

<g transform="translate(0.000000,698.000000) scale(0.100000,-0.100000)"
fill="#000000" stroke="none">
<path d="M2390 4925 l0 -105 805 0 805 0 0 105 0 105 -805 0 -805 0 0 -105z"/>
<path d="M2570 4590 l0 -110 130 0 130 0 0 -336 0 -335 81 85 c44 47 103 102
130 122 l49 36 0 324 0 324 -260 0 -260 0 0 -110z"/>
<path d="M3290 4244 l0 -456 33 21 c17 12 76 44 130 72 l97 49 0 275 0 275
130 0 130 0 0 110 0 110 -260 0 -260 0 0 -456z"/>
<path d="M2045 4358 c-76 -211 -131 -361 -190 -523 -188 -510 -206 -565 -212
-644 -17 -228 128 -414 372 -476 136 -35 449 -11 663 51 l52 15 0 120 c0 65
-3 119 -6 119 -4 0 -47 -11 -98 -25 -224 -60 -478 -78 -585 -41 -115 40 -177
140 -154 250 19 88 276 799 284 784 4 -7 25 -65 47 -128 22 -63 83 -236 136
-385 97 -272 106 -314 86 -384 l-9 -33 45 7 c51 7 193 43 207 52 6 3 7 37 4
78 -7 76 -13 94 -212 645 -59 162 -126 348 -148 413 l-42 117 -118 0 c-85 0
-119 -3 -122 -12z"/>
<path d="M3920 4290 c-64 -14 -232 -61 -252 -72 -16 -8 -18 -24 -18 -128 0
-66 2 -120 5 -120 3 0 22 7 43 16 47 19 243 71 303 79 78 11 166 -25 211 -86
17 -23 123 -306 249 -666 55 -157 50 -232 -22 -304 -91 -91 -302 -102 -422
-23 -56 37 -91 118 -84 190 3 31 53 188 118 370 l113 316 -19 37 c-26 47 -77
73 -133 68 -24 -3 -48 -9 -53 -14 -5 -5 -65 -163 -134 -350 -140 -382 -149
-426 -121 -546 21 -89 48 -139 109 -205 97 -101 195 -141 367 -149 191 -8 316
33 426 142 97 96 144 228 129 360 -10 90 -284 844 -333 915 -44 65 -117 122
-192 151 -63 24 -216 34 -290 19z"/>
<path d="M9390 4093 c-78 -29 -90 -142 -19 -178 81 -43 179 6 179 88 0 63 -92
115 -160 90z"/>
<path d="M8040 3620 l0 -430 55 0 55 0 0 430 0 430 -55 0 -55 0 0 -430z"/>
<path d="M10490 4042 c-6 -3 -10 -151 -10 -428 l0 -424 95 0 95 0 0 83 0 83
40 39 c36 35 41 37 52 22 7 -9 49 -64 93 -122 l80 -104 113 -1 113 0 -106 138
c-59 75 -120 157 -137 180 l-30 44 123 126 124 127 -109 3 -110 3 -122 -122
c-67 -67 -124 -117 -127 -112 -3 5 -6 112 -6 238 l0 228 -80 1 c-45 1 -85 0
-91 -2z"/>
<path d="M5200 3595 l0 -405 275 0 275 0 0 50 0 50 -215 0 -215 0 0 355 0 355
-60 0 -60 0 0 -405z"/>
<path d="M8650 3595 l0 -405 295 0 295 0 0 80 0 80 -200 0 -200 0 0 325 0 325
-95 0 -95 0 0 -405z"/>
<path d="M10005 3814 c-43 -11 -81 -28 -112 -51 l-33 -24 0 35 0 36 -85 0 -85
0 0 -310 0 -310 90 0 90 0 0 175 c0 195 6 223 59 268 25 21 43 27 79 27 115
-1 131 -35 132 -282 l0 -188 90 0 90 0 0 218 c-1 155 -5 228 -14 255 -34 93
-111 147 -219 153 -34 1 -71 1 -82 -2z"/>
<path d="M6035 3801 c-132 -35 -225 -155 -225 -292 0 -99 23 -163 81 -224 86
-91 210 -124 339 -91 65 17 138 58 147 84 6 13 -43 72 -60 72 -5 0 -22 -11
-38 -24 -16 -14 -54 -30 -84 -37 -121 -27 -236 36 -270 149 l-6 22 250 0 251
0 0 50 c0 108 -67 218 -163 267 -54 27 -166 39 -222 24z m175 -111 c42 -21 83
-76 94 -122 l6 -28 -188 0 c-104 0 -191 3 -195 6 -8 8 12 64 36 98 44 62 169
86 247 46z"/>
<path d="M6712 3791 c-74 -25 -122 -67 -159 -140 -29 -55 -33 -72 -33 -139 0
-94 27 -159 88 -214 56 -50 91 -67 162 -77 100 -13 166 3 239 57 l34 25 -5
-66 c-7 -82 -34 -128 -92 -156 -80 -39 -221 -23 -308 34 -22 15 -41 25 -42 23
-1 -2 -13 -21 -26 -42 l-23 -39 26 -23 c52 -45 133 -67 247 -68 62 -1 124 5
152 13 62 18 125 73 154 135 23 50 24 56 24 371 l0 320 -55 -3 -55 -4 0 -41 0
-41 -28 27 c-66 63 -196 84 -300 48z m218 -103 c68 -35 103 -86 108 -158 15
-211 -257 -300 -378 -123 -28 40 -37 117 -20 167 38 116 178 171 290 114z"/>
<path d="M7439 3787 c-36 -12 -78 -30 -93 -40 l-27 -18 22 -37 c12 -20 24 -39
26 -41 1 -2 26 8 55 24 68 37 175 46 227 18 43 -22 68 -57 77 -105 l6 -38
-105 0 c-231 0 -320 -52 -320 -187 0 -113 82 -177 228 -177 83 0 125 14 173
57 l22 20 0 -36 0 -37 55 0 55 0 0 213 c0 247 -8 285 -70 341 -74 67 -209 84
-331 43z m288 -373 c-6 -58 -31 -93 -87 -121 -101 -52 -220 -7 -220 83 0 24 8
39 31 58 29 25 36 26 156 26 l126 0 -6 -46z"/>
<path d="M9340 3500 l0 -310 95 0 95 0 0 310 0 310 -95 0 -95 0 0 -310z"/>
<path d="M3040 3159 c-25 -16 -82 -45 -125 -64 l-80 -34 -3 -281 -2 -280 -200
0 -200 0 0 -110 0 -110 330 0 330 0 0 253 c0 138 3 343 7 455 3 119 2 202 -3
201 -5 0 -29 -14 -54 -30z"/>
<path d="M3542 3163 c-4 -19 -150 -170 -203 -209 l-49 -36 0 -312 0 -313 46
-7 c26 -3 174 -6 330 -6 l284 0 0 110 0 110 -200 0 -200 0 -3 338 c-1 185 -3
332 -5 325z"/>
<path d="M9590 2573 c0 -156 1 -163 20 -163 19 0 20 7 20 163 0 156 -1 163
-20 163 -19 0 -20 -7 -20 -163z"/>
<path d="M10185 2715 c-14 -13 -25 -36 -25 -50 0 -18 -5 -25 -20 -25 -11 0
-20 -7 -20 -15 0 -8 9 -15 20 -15 19 0 20 -7 20 -100 0 -93 1 -100 20 -100 19
0 20 7 20 100 l0 100 36 0 c45 0 42 24 -4 28 -26 3 -32 8 -32 27 0 27 30 48
53 39 20 -7 33 16 16 27 -25 16 -59 9 -84 -16z"/>
<path d="M7710 2670 c0 -64 -3 -68 -34 -45 -11 8 -37 15 -59 15 -31 0 -46 -7
-73 -34 -28 -28 -34 -41 -34 -77 0 -95 79 -152 158 -115 24 12 38 14 40 7 2
-6 10 -11 18 -11 11 0 14 29 14 160 0 136 -2 160 -15 160 -12 0 -15 -13 -15
-60z m-36 -81 c22 -17 26 -28 26 -69 0 -56 -23 -80 -75 -80 -71 0 -103 93 -50
145 30 30 64 32 99 4z"/>
<path d="M9030 2570 c0 -153 1 -160 20 -160 19 0 20 7 20 160 0 153 -1 160
-20 160 -19 0 -20 -7 -20 -160z"/>
<path d="M5257 2571 c-37 -82 -67 -152 -67 -155 0 -3 9 -6 19 -6 13 0 24 11
32 35 l13 35 89 0 88 0 11 -30 c10 -31 43 -57 52 -42 3 5 -25 75 -62 158 -90
200 -89 200 -175 5z m122 29 c17 -39 31 -72 31 -75 0 -3 -29 -5 -65 -5 -36 0
-65 3 -65 7 0 14 55 143 61 143 4 0 20 -32 38 -70z"/>
<path d="M5550 2565 c0 -148 1 -155 20 -155 19 0 20 7 20 155 0 148 -1 155
-20 155 -19 0 -20 -7 -20 -155z"/>
<path d="M5855 2712 c-3 -3 -5 -72 -5 -154 0 -141 1 -148 20 -148 17 0 20 7
20 45 l0 45 50 0 c95 0 150 41 150 111 0 45 -29 84 -73 98 -32 10 -152 13
-162 3z m173 -48 c16 -11 22 -25 22 -54 0 -52 -26 -70 -102 -70 l-58 0 0 70 0
70 58 0 c36 0 66 -6 80 -16z"/>
<path d="M7950 2565 l0 -155 103 0 c86 0 104 3 104 15 0 12 -16 15 -84 15
l-83 0 0 140 c0 133 -1 140 -20 140 -19 0 -20 -7 -20 -155z"/>
<path d="M9280 2564 c0 -147 1 -154 20 -154 17 0 20 7 20 45 l0 45 43 0 c57 0
105 15 134 42 18 16 23 32 23 68 0 79 -50 110 -177 109 l-63 -1 0 -154z m185
105 c-3 -4 -1 -10 5 -14 5 -3 10 -24 10 -45 0 -52 -26 -70 -102 -70 l-58 0 0
71 0 70 75 -2 c41 -1 72 -5 70 -10z"/>
<path d="M9980 2665 c0 -18 -5 -25 -20 -25 -11 0 -20 -7 -20 -15 0 -8 9 -15
20 -15 18 0 20 -7 20 -80 0 -73 3 -83 25 -105 24 -25 49 -31 79 -19 24 9 20
37 -4 29 -10 -3 -28 -1 -40 5 -18 9 -20 20 -20 90 l0 80 30 0 c20 0 30 5 30
15 0 10 -10 15 -30 15 -25 0 -30 4 -30 25 0 18 -5 25 -20 25 -15 0 -20 -7 -20
-25z"/>
<path d="M6188 2622 c-31 -18 -58 -67 -58 -104 0 -37 37 -88 76 -104 96 -40
187 50 154 151 -22 66 -111 96 -172 57z m116 -37 c28 -26 34 -70 15 -108 -16
-30 -28 -37 -71 -37 -28 0 -42 6 -57 26 -66 84 35 191 113 119z"/>
<path d="M6424 2542 c19 -55 39 -109 45 -121 19 -35 42 -12 77 80 l32 83 14
-34 c8 -19 23 -59 33 -87 15 -43 23 -53 42 -53 13 0 23 1 23 3 0 2 18 54 40
115 35 99 38 112 22 112 -13 0 -26 -24 -52 -97 l-33 -96 -33 84 c-18 46 -33
90 -34 97 0 6 -8 12 -19 12 -14 0 -26 -20 -51 -90 -18 -49 -35 -90 -39 -90 -3
0 -19 41 -35 90 -22 68 -34 90 -47 90 -16 0 -14 -10 15 -98z"/>
<path d="M6844 2621 c-38 -23 -59 -77 -50 -126 8 -41 53 -82 100 -90 39 -8
110 18 103 37 -2 7 -11 11 -18 9 -8 -3 -33 -6 -56 -9 -35 -3 -46 0 -67 22 -15
14 -26 30 -26 36 0 6 36 10 96 10 l97 0 -6 38 c-13 79 -102 117 -173 73z m107
-24 c9 -7 21 -22 28 -34 12 -23 12 -23 -69 -23 -87 0 -95 6 -55 45 26 27 70
32 96 12z"/>
<path d="M7080 2525 c0 -108 1 -115 20 -115 18 0 20 7 20 75 0 62 4 79 20 95
18 18 33 24 53 21 4 0 7 8 7 19 0 24 -32 27 -50 5 -7 -8 -16 -15 -21 -15 -5 0
-9 7 -9 15 0 8 -9 15 -20 15 -19 0 -20 -7 -20 -115z"/>
<path d="M7278 2611 c-31 -27 -33 -34 -33 -91 0 -55 3 -64 27 -85 37 -31 96
-40 142 -21 20 8 36 19 36 25 0 16 -21 24 -33 12 -19 -19 -91 -13 -115 9 -43
40 -30 50 66 50 49 0 91 2 94 5 12 13 -7 69 -34 95 -42 42 -104 42 -150 1z
m126 -22 c47 -37 35 -49 -49 -49 -82 0 -94 11 -55 50 26 26 70 26 104 -1z"/>
<path d="M8234 2621 c-89 -54 -55 -197 50 -217 34 -6 106 17 106 34 0 17 -13
21 -34 10 -36 -19 -89 -11 -113 17 -13 14 -23 30 -23 36 0 5 43 9 96 9 l97 0
-6 38 c-13 79 -102 117 -173 73z m121 -36 c40 -39 32 -45 -55 -45 -79 0 -80 0
-78 25 1 13 4 22 6 20 3 -2 14 2 26 10 31 22 74 18 101 -10z"/>
<path d="M8497 2619 c-84 -65 -39 -199 67 -199 23 0 52 7 64 16 21 15 22 14
22 -15 0 -62 -75 -92 -142 -57 -27 15 -38 12 -38 -10 0 -28 111 -44 164 -24
44 16 56 56 56 190 0 113 -1 120 -20 120 -11 0 -20 -7 -20 -16 0 -14 -2 -14
-22 0 -32 23 -100 20 -131 -5z m127 -30 c20 -16 26 -29 26 -60 0 -50 -27 -79
-74 -79 -51 0 -81 29 -81 80 0 32 6 47 24 61 30 25 72 24 105 -2z"/>
<path d="M8788 2629 c-10 -5 -18 -17 -18 -26 0 -11 5 -13 18 -8 61 27 122 12
122 -30 0 -23 -3 -25 -51 -25 -83 0 -122 -35 -99 -91 18 -41 75 -58 121 -35
21 11 35 13 37 6 2 -5 10 -10 18 -10 11 0 14 19 14 90 0 83 -2 93 -25 115 -19
20 -34 25 -72 25 -26 0 -56 -5 -65 -11z m132 -138 c0 -25 -45 -61 -76 -61 -24
0 -54 24 -54 44 0 24 25 36 77 36 46 0 53 -3 53 -19z"/>
<path d="M9733 2630 c-13 -5 -23 -17 -23 -26 0 -12 5 -14 18 -8 61 27 122 9
122 -37 0 -16 -7 -19 -44 -19 -25 0 -56 -4 -70 -10 -53 -20 -57 -89 -5 -115
36 -19 57 -19 94 1 19 10 31 11 33 5 2 -6 10 -11 18 -11 11 0 14 19 14 90 0
83 -2 93 -25 115 -26 27 -87 33 -132 15z m115 -147 c-6 -53 -98 -71 -113 -22
-11 32 12 49 67 49 48 0 49 -1 46 -27z"/>
<path d="M10344 2621 c-37 -23 -59 -77 -50 -125 7 -35 48 -80 84 -91 57 -17
137 32 148 90 19 106 -91 182 -182 126z m129 -42 c23 -29 22 -80 -4 -113 -46
-58 -139 -19 -139 58 0 76 95 112 143 55z"/>
<path d="M10590 2526 c0 -105 1 -114 20 -119 19 -5 20 0 20 74 0 85 17 119 60
119 13 0 20 7 20 20 0 24 -32 27 -50 5 -7 -8 -16 -15 -21 -15 -5 0 -9 7 -9 15
0 8 -9 15 -20 15 -19 0 -20 -7 -20 -114z"/>
<path d="M10770 2525 c0 -108 1 -115 20 -115 18 0 20 7 20 75 0 67 3 79 25
100 29 30 58 32 85 5 17 -17 20 -33 20 -100 0 -73 2 -80 20 -80 18 0 20 7 20
80 0 69 3 82 22 100 25 23 56 26 84 6 16 -12 20 -29 23 -100 3 -77 5 -86 22
-86 17 0 19 8 19 63 0 79 -15 132 -43 152 -31 22 -89 19 -116 -6 l-22 -21 -23
21 c-27 25 -82 28 -114 5 -20 -14 -22 -14 -22 0 0 9 -9 16 -20 16 -19 0 -20
-7 -20 -115z"/>
<path d="M5677 2544 c-4 -4 -7 -13 -7 -21 0 -9 16 -13 56 -13 47 0 55 3 52 18
-2 13 -15 18 -48 20 -25 2 -49 0 -53 -4z"/>
<path d="M2240 2055 l0 -105 950 0 950 0 0 105 0 105 -950 0 -950 0 0 -105z"/>
</g>
</svg>
